<svg width="200" height="160" viewBox="0 0 200 160" fill="none" xmlns="http://www.w3.org/2000/svg">
<path fill-rule="evenodd" clip-rule="evenodd" d="M0 2C0 0.895429 0.895431 0 2 0H198C199.105 0 200 0.895431 200 2V158C200 159.105 199.105 160 198 160H2C0.895429 160 0 159.105 0 158V2Z" fill="#D8D8D8"/>
<mask id="mask0" mask-type="alpha" maskUnits="userSpaceOnUse" x="0" y="0" width="200" height="160">
<path fill-rule="evenodd" clip-rule="evenodd" d="M0 2C0 0.895429 0.895431 0 2 0H198C199.105 0 200 0.895431 200 2V158C200 159.105 199.105 160 198 160H2C0.895429 160 0 159.105 0 158V2Z" fill="white"/>
</mask>
<g mask="url(#mask0)">
<rect width="200" height="160"/>
</g>
</svg>
